<svg width="88" height="88" viewBox="0 0 88 88" fill="none" xmlns="http://www.w3.org/2000/svg">
<g filter="url(#filter0_d_73_532)">
<rect x="5.13794" y="1.1377" width="77.7241" height="77.7241" rx="13" fill="white" stroke="white" stroke-width="2"/>
</g>
<path d="M36.7187 46.2307C33.1177 47.6078 32.2036 52.2623 35.0013 54.9338C39.8488 59.5607 47.1339 61.2683 53.8373 58.7069C60.5407 56.1456 64.7788 50.0039 65.222 43.3389C65.4713 39.5106 61.6764 36.6463 58.0754 38.0509C57.9092 38.106 47.0231 42.2923 46.8569 42.3474C46.7184 42.4025 36.8572 46.1756 36.7187 46.2307Z" fill="#9BC9DD"/>
<path d="M59.8571 71.1003C65.9511 68.7611 70.2213 65.1393 69.3948 63.0108C68.5683 60.8824 62.9582 61.0532 56.8642 63.3924C50.7702 65.7316 46.5001 69.3534 47.3265 71.4819C48.153 73.6104 53.7631 73.4395 59.8571 71.1003Z" fill="#64C676"/>
<path d="M55.7485 11.0334C54.3358 11.5566 53.3109 12.8235 53.117 14.3383C52.6738 18.0289 50.2085 21.3338 46.4967 22.7109C43.2558 23.9227 39.821 23.3994 37.1341 21.6368C34.9735 20.2046 32.342 19.7364 29.9321 20.6453L17.9104 25.107C15.3897 26.0434 14.4202 29.128 15.9991 31.3038C21.8438 39.3458 33.5608 42.5957 44.53 38.5196C55.4992 34.4435 62.2026 24.3634 61.2885 14.476C61.0392 11.8045 58.2969 10.097 55.7485 11.0334Z" fill="#64C676"/>
<path d="M44.5301 38.5194C50.9565 36.1234 55.8871 31.6892 58.7125 26.4564C52.0091 28.5495 46.2475 33.204 39.0732 34.0027C33.921 34.581 28.2702 34.6637 23.5612 31.9095C22.9518 31.5515 17.7165 28.0538 16.0268 26.3462C14.9465 27.6131 14.7526 29.541 15.8052 31.0282C21.5668 39.2906 33.4224 42.6506 44.5301 38.5194Z" fill="#57B565"/>
<path d="M44.53 19.6811C47.5896 19.6811 50.07 17.2149 50.07 14.1728C50.07 11.1307 47.5896 8.66455 44.53 8.66455C41.4703 8.66455 38.99 11.1307 38.99 14.1728C38.99 17.2149 41.4703 19.6811 44.53 19.6811Z" fill="#9BC9DD"/>
<path d="M45.278 8.71973C45.3611 9.07776 45.5273 9.40826 45.7766 9.68367C46.4968 10.3997 47.3555 11.3912 47.6602 12.245C47.771 12.5204 47.8818 12.8234 47.9372 13.1263C47.9372 13.1263 47.9372 13.1263 47.9372 13.1814V13.3742C47.9372 13.3742 47.9926 13.6496 47.9926 13.7873C47.9926 13.7873 47.9926 14.2555 47.9926 14.1454C47.9926 14.0352 47.9372 14.5034 47.9372 14.5034C47.8818 14.7513 47.771 15.1369 47.7433 15.247C47.3832 16.1559 46.663 17.0647 45.9151 17.6431C44.8625 18.4693 43.893 18.91 42.7019 19.3507C42.7019 19.3507 42.6742 19.3507 42.6465 19.3782C43.3113 19.6261 44.0592 19.7362 44.8071 19.7087C47.8541 19.5435 50.2086 16.9546 50.0701 13.925C49.9316 11.226 47.8818 9.1053 45.278 8.74727V8.71973Z" fill="#70A0B4"/>
<path d="M53.8373 58.7072C58.9618 56.7518 62.6182 52.6757 64.2802 47.8835C63.5323 47.9386 62.8121 48.1314 62.175 48.572C59.1834 50.5275 56.0256 52.1249 52.6463 53.3367C51.1505 53.86 49.8486 54.3557 48.2974 54.3557C48.0204 54.3557 47.9927 54.3557 48.1866 54.3557C48.0204 54.3557 47.8819 54.3282 47.7157 54.3006C47.3279 54.2455 46.9401 54.1905 46.5523 54.1078C45.8321 53.9701 45.5828 53.8875 45.1119 53.7498C42.2311 52.7032 40.4029 51.6016 38.1592 49.4809C37.9653 49.2881 37.9376 49.2606 38.1038 49.4533C37.993 49.3432 37.9099 49.233 37.7991 49.1229C37.5498 48.8474 37.3005 48.5445 37.0512 48.2691C36.6357 47.7733 36.2479 47.2225 35.8878 46.6992C32.9516 48.4068 32.3699 52.5104 34.946 54.9891C39.7935 59.6161 47.0786 61.3237 53.782 58.7623L53.8373 58.7072Z" fill="#7EAFC5"/>
<path d="M69.3771 63.0031C68.9339 61.8739 67.1334 61.4057 64.6404 61.5434C65.2498 62.2319 66.247 62.7828 65.8869 63.6916C65.7207 64.1323 65.3607 64.573 65.056 64.931C63.7264 66.5835 61.8428 67.8779 60.0977 69.0071C56.469 71.3206 52.0647 71.4858 47.9097 72.1744C49.6548 73.4963 54.5577 73.0832 59.8484 71.0727C65.9423 68.7317 70.2081 65.1238 69.3771 62.9756V63.0031Z" fill="#57B565"/>
<defs>
<filter id="filter0_d_73_532" x="0.137939" y="0.137695" width="87.7241" height="87.7241" filterUnits="userSpaceOnUse" color-interpolation-filters="sRGB">
<feFlood flood-opacity="0" result="BackgroundImageFix"/>
<feColorMatrix in="SourceAlpha" type="matrix" values="0 0 0 0 0 0 0 0 0 0 0 0 0 0 0 0 0 0 127 0" result="hardAlpha"/>
<feOffset dy="4"/>
<feGaussianBlur stdDeviation="2"/>
<feComposite in2="hardAlpha" operator="out"/>
<feColorMatrix type="matrix" values="0 0 0 0 0 0 0 0 0 0 0 0 0 0 0 0 0 0 0.13 0"/>
<feBlend mode="normal" in2="BackgroundImageFix" result="effect1_dropShadow_73_532"/>
<feBlend mode="normal" in="SourceGraphic" in2="effect1_dropShadow_73_532" result="shape"/>
</filter>
</defs>
</svg>
