<svg width="17" height="16" viewBox="0 0 17 16" fill="none" xmlns="http://www.w3.org/2000/svg">
<path d="M13.3835 5.43121C13.2955 5.55795 13.2395 5.66868 13.1568 5.75273C9.9941 8.93725 6.82745 12.1204 3.66213 15.3023C3.58343 15.381 3.50873 15.4624 3.42603 15.5371C2.73775 16.1548 1.69598 16.1561 1.10106 15.5398C0.506149 14.9234 0.518154 13.9162 1.12774 13.2384C1.20244 13.1557 1.28381 13.081 1.36251 13.0023C4.54517 9.83511 7.72649 6.66793 10.9105 3.50475C10.9932 3.42203 11.1052 3.36867 11.2039 3.30063C11.1813 3.26728 11.1586 3.23392 11.1359 3.20057C11.0292 3.20057 10.9238 3.20057 10.8171 3.20057C8.51749 3.20057 6.21786 3.20591 3.91824 3.1979C2.73108 3.1939 2.01211 2.23067 2.33091 1.10068C2.50031 0.502997 3.02053 0.0760814 3.66613 0.0120441C3.80886 -0.00129705 3.95425 3.70586e-05 4.09831 3.70586e-05C7.6758 3.70586e-05 11.2533 3.70586e-05 14.8308 3.70586e-05C16.0833 3.70586e-05 16.6609 0.579041 16.6609 1.83444C16.6609 5.45655 16.6635 9.07867 16.6595 12.7008C16.6582 13.9188 15.7138 14.6499 14.5707 14.3324C13.8944 14.1443 13.4689 13.5599 13.4635 12.7728C13.4555 11.5401 13.4609 10.306 13.4609 9.07333C13.4609 7.99537 13.4609 6.91741 13.4595 5.83944C13.4595 5.73405 13.4916 5.62332 13.3835 5.42987V5.43121Z" fill="#64C676"/>
</svg>
