<svg width="267" height="67" viewBox="0 0 267 67" fill="none" xmlns="http://www.w3.org/2000/svg">
<path d="M22.0241 37.8384C18.4231 39.2154 17.509 43.8699 20.3067 46.5414C25.1542 51.1684 32.4393 52.8759 39.1427 50.3146C45.8461 47.7532 50.0842 41.6115 50.5274 34.9465C50.7767 31.1183 46.9818 28.254 43.3808 29.6586C43.2146 29.7137 32.3285 33.9 32.1623 33.955C32.0238 34.0101 22.1626 37.7833 22.0241 37.8384Z" fill="#9BC9DD"/>
<path d="M45.1628 62.708C51.2568 60.3688 55.5269 56.747 54.7005 54.6185C53.874 52.49 48.2638 52.6609 42.1699 55.0001C36.0759 57.3393 31.8057 60.9611 32.6322 63.0895C33.4587 65.218 39.0688 65.0472 45.1628 62.708Z" fill="#64C676"/>
<path d="M41.0539 2.64103C39.6412 3.16432 38.6163 4.43122 38.4224 5.94599C37.9792 9.63652 35.5139 12.9415 31.8021 14.3185C28.5613 15.5304 25.1265 15.0071 22.4396 13.2444C20.279 11.8123 17.6475 11.3441 15.2376 12.2529L3.21578 16.7146C0.695081 17.651 -0.274418 20.7357 1.30448 22.9114C7.14917 30.9535 18.8663 34.2034 29.8354 30.1273C40.8046 26.0511 47.508 15.971 46.5939 6.08369C46.3446 3.41219 43.6023 1.70463 41.0539 2.64103Z" fill="#64C676"/>
<path d="M29.8355 30.1271C36.2619 27.731 41.1925 23.2969 44.0179 18.064C37.3145 20.1572 31.5529 24.8116 24.3786 25.6103C19.2264 26.1887 13.5756 26.2713 8.86664 23.5172C8.25724 23.1592 3.02194 19.6614 1.33225 17.9539C0.251947 19.2208 0.0580475 21.1486 1.11065 22.6359C6.87224 30.8983 18.7278 34.2583 29.8355 30.1271Z" fill="#57B565"/>
<path d="M29.8354 11.2887C32.8951 11.2887 35.3754 8.82261 35.3754 5.78048C35.3754 2.73835 32.8951 0.272217 29.8354 0.272217C26.7757 0.272217 24.2954 2.73835 24.2954 5.78048C24.2954 8.82261 26.7757 11.2887 29.8354 11.2887Z" fill="#9BC9DD"/>
<path d="M30.5836 0.327393C30.6667 0.685429 30.8329 1.01593 31.0822 1.29134C31.8024 2.00741 32.6611 2.9989 32.9658 3.85268C33.0766 4.12809 33.1874 4.43105 33.2428 4.734C33.2428 4.734 33.2428 4.734 33.2428 4.78908V4.98187C33.2428 4.98187 33.2982 5.25729 33.2982 5.39499C33.2982 5.39499 33.2982 5.86319 33.2982 5.75303C33.2982 5.64286 33.2428 6.11107 33.2428 6.11107C33.1874 6.35894 33.0766 6.74452 33.0489 6.85468C32.6888 7.76354 31.9686 8.67241 31.2207 9.25077C30.1681 10.077 29.1986 10.5177 28.0075 10.9583C28.0075 10.9583 27.9798 10.9583 27.9521 10.9859C28.6169 11.2337 29.3648 11.3439 30.1127 11.3164C33.1597 11.1511 35.5142 8.56224 35.3757 5.5327C35.2372 2.83365 33.1874 0.712971 30.5836 0.354934V0.327393Z" fill="#70A0B4"/>
<path d="M39.143 50.3149C44.2675 48.3595 47.9239 44.2833 49.5859 39.4912C48.838 39.5462 48.1178 39.739 47.4807 40.1797C44.4891 42.1351 41.3313 43.7325 37.9519 44.9443C36.4561 45.4676 35.1542 45.9634 33.603 45.9634C33.326 45.9634 33.2983 45.9634 33.4922 45.9634C33.326 45.9634 33.1875 45.9358 33.0213 45.9083C32.6335 45.8532 32.2457 45.7981 31.8579 45.7155C31.1377 45.5778 30.8884 45.4952 30.4175 45.3575C27.5367 44.3109 25.7085 43.2092 23.4648 41.0886C23.2709 40.8958 23.2432 40.8682 23.4094 41.061C23.2986 40.9508 23.2155 40.8407 23.1047 40.7305C22.8554 40.4551 22.6061 40.1522 22.3568 39.8767C21.9413 39.381 21.5535 38.8302 21.1934 38.3069C18.2572 40.0144 17.6755 44.1181 20.2516 46.5968C25.0991 51.2238 32.3842 52.9313 39.0876 50.37L39.143 50.3149Z" fill="#7EAFC5"/>
<path d="M54.6823 54.6108C54.2391 53.4816 52.4386 53.0134 49.9456 53.1511C50.555 53.8396 51.5522 54.3904 51.1921 55.2993C51.0259 55.74 50.6658 56.1806 50.3611 56.5387C49.0315 58.1911 47.1479 59.4856 45.4028 60.6148C41.7741 62.9282 37.3698 63.0935 33.2148 63.782C34.9599 65.104 39.8628 64.6909 45.1535 62.6804C51.2475 60.3394 55.5133 56.7314 54.6823 54.5832V54.6108Z" fill="#57B565"/>
<path d="M76.0238 50.7644V15.8553H83.4045V30.2587H98.3875V15.8553H105.751V50.7644H98.3875V36.3439H83.4045V50.7644H76.0238ZM128.49 39.6167V24.5826H135.751V50.7644H128.78V46.0087H128.507C127.916 47.5428 126.933 48.7758 125.558 49.7076C124.194 50.6394 122.53 51.1053 120.564 51.1053C118.814 51.1053 117.274 50.7076 115.944 49.9121C114.615 49.1167 113.575 47.986 112.825 46.5201C112.086 45.0542 111.711 43.2985 111.7 41.253V24.5826H118.961V39.9576C118.973 41.503 119.387 42.7246 120.206 43.6224C121.024 44.5201 122.12 44.9689 123.495 44.9689C124.37 44.9689 125.189 44.7701 125.95 44.3724C126.711 43.9633 127.325 43.361 127.791 42.5655C128.268 41.7701 128.501 40.7871 128.49 39.6167ZM149.025 51.2587C147.355 51.2587 145.866 50.9689 144.559 50.3894C143.253 49.7985 142.218 48.9292 141.457 47.7814C140.707 46.6224 140.332 45.1792 140.332 43.4519C140.332 41.9974 140.599 40.7758 141.133 39.7871C141.667 38.7985 142.395 38.003 143.315 37.4008C144.235 36.7985 145.281 36.3439 146.451 36.0371C147.633 35.7303 148.872 35.5144 150.167 35.3894C151.69 35.2303 152.917 35.0826 153.849 34.9462C154.781 34.7985 155.457 34.5826 155.878 34.2985C156.298 34.0144 156.508 33.5939 156.508 33.0371V32.9349C156.508 31.8553 156.167 31.0201 155.485 30.4292C154.815 29.8383 153.86 29.5428 152.622 29.5428C151.315 29.5428 150.275 29.8326 149.503 30.4121C148.73 30.9803 148.218 31.6962 147.968 32.5599L141.253 32.0144C141.593 30.4235 142.264 29.0485 143.264 27.8894C144.264 26.7189 145.554 25.8212 147.133 25.1962C148.724 24.5599 150.565 24.2417 152.656 24.2417C154.11 24.2417 155.503 24.4121 156.832 24.753C158.173 25.0939 159.36 25.6224 160.395 26.3383C161.44 27.0542 162.264 27.9746 162.866 29.0996C163.468 30.2133 163.77 31.5485 163.77 33.1053V50.7644H156.883V47.1337H156.679C156.258 47.9519 155.696 48.6735 154.991 49.2985C154.287 49.9121 153.44 50.3951 152.451 50.7474C151.463 51.0883 150.321 51.2587 149.025 51.2587ZM151.105 46.2474C152.173 46.2474 153.116 46.0371 153.934 45.6167C154.753 45.1849 155.395 44.6053 155.86 43.878C156.326 43.1508 156.559 42.3269 156.559 41.4064V38.628C156.332 38.7758 156.02 38.9121 155.622 39.0371C155.235 39.1508 154.798 39.2587 154.309 39.361C153.821 39.4519 153.332 39.5371 152.843 39.6167C152.355 39.6849 151.912 39.7474 151.514 39.8042C150.662 39.9292 149.917 40.128 149.281 40.4008C148.645 40.6735 148.15 41.0428 147.798 41.5087C147.446 41.9633 147.27 42.5314 147.27 43.2133C147.27 44.2019 147.628 44.9576 148.343 45.4803C149.071 45.9917 149.991 46.2474 151.105 46.2474ZM176.664 35.628V50.7644H169.403V24.5826H176.324V29.2019H176.63C177.21 27.6792 178.182 26.4746 179.545 25.5883C180.909 24.6905 182.562 24.2417 184.505 24.2417C186.324 24.2417 187.909 24.6394 189.261 25.4349C190.613 26.2303 191.664 27.3667 192.414 28.8439C193.164 30.3099 193.539 32.0599 193.539 34.0939V50.7644H186.278V35.3894C186.289 33.7871 185.88 32.5371 185.051 31.6394C184.221 30.7303 183.079 30.2758 181.625 30.2758C180.647 30.2758 179.784 30.486 179.034 30.9064C178.295 31.3269 177.716 31.9405 177.295 32.7474C176.886 33.5428 176.676 34.503 176.664 35.628ZM199.399 50.7644V15.8553H206.66V28.9803H206.882C207.2 28.2758 207.66 27.5599 208.262 26.8326C208.876 26.0939 209.672 25.4803 210.649 24.9917C211.637 24.4917 212.865 24.2417 214.331 24.2417C216.24 24.2417 218.001 24.7417 219.615 25.7417C221.228 26.7303 222.518 28.2246 223.484 30.2246C224.45 32.2133 224.933 34.7076 224.933 37.7076C224.933 40.628 224.461 43.0939 223.518 45.1053C222.586 47.1053 221.314 48.6224 219.7 49.6564C218.098 50.6792 216.302 51.1905 214.314 51.1905C212.905 51.1905 211.706 50.9576 210.717 50.4917C209.74 50.0258 208.939 49.4405 208.314 48.736C207.689 48.0201 207.211 47.2985 206.882 46.5712H206.558V50.7644H199.399ZM206.507 37.6735C206.507 39.2303 206.723 40.5883 207.155 41.7474C207.586 42.9064 208.211 43.8099 209.03 44.4576C209.848 45.0939 210.842 45.4121 212.012 45.4121C213.194 45.4121 214.194 45.0883 215.012 44.4405C215.831 43.7814 216.45 42.8724 216.87 41.7133C217.302 40.5428 217.518 39.1962 217.518 37.6735C217.518 36.1621 217.308 34.8326 216.887 33.6849C216.467 32.5371 215.848 31.6394 215.03 30.9917C214.211 30.3439 213.206 30.0201 212.012 30.0201C210.831 30.0201 209.831 30.3326 209.012 30.9576C208.206 31.5826 207.586 32.4689 207.155 33.6167C206.723 34.7644 206.507 36.1167 206.507 37.6735ZM237.244 51.2587C235.574 51.2587 234.085 50.9689 232.778 50.3894C231.471 49.7985 230.437 48.9292 229.676 47.7814C228.926 46.6224 228.551 45.1792 228.551 43.4519C228.551 41.9974 228.818 40.7758 229.352 39.7871C229.886 38.7985 230.613 38.003 231.534 37.4008C232.454 36.7985 233.5 36.3439 234.67 36.0371C235.852 35.7303 237.091 35.5144 238.386 35.3894C239.909 35.2303 241.136 35.0826 242.068 34.9462C243 34.7985 243.676 34.5826 244.096 34.2985C244.517 34.0144 244.727 33.5939 244.727 33.0371V32.9349C244.727 31.8553 244.386 31.0201 243.704 30.4292C243.034 29.8383 242.079 29.5428 240.841 29.5428C239.534 29.5428 238.494 29.8326 237.721 30.4121C236.949 30.9803 236.437 31.6962 236.187 32.5599L229.471 32.0144C229.812 30.4235 230.483 29.0485 231.483 27.8894C232.483 26.7189 233.772 25.8212 235.352 25.1962C236.943 24.5599 238.784 24.2417 240.875 24.2417C242.329 24.2417 243.721 24.4121 245.051 24.753C246.392 25.0939 247.579 25.6224 248.613 26.3383C249.659 27.0542 250.483 27.9746 251.085 29.0996C251.687 30.2133 251.988 31.5485 251.988 33.1053V50.7644H245.102V47.1337H244.897C244.477 47.9519 243.914 48.6735 243.21 49.2985C242.505 49.9121 241.659 50.3951 240.67 50.7474C239.682 51.0883 238.539 51.2587 237.244 51.2587ZM239.324 46.2474C240.392 46.2474 241.335 46.0371 242.153 45.6167C242.971 45.1849 243.613 44.6053 244.079 43.878C244.545 43.1508 244.778 42.3269 244.778 41.4064V38.628C244.551 38.7758 244.238 38.9121 243.841 39.0371C243.454 39.1508 243.017 39.2587 242.528 39.361C242.039 39.4519 241.551 39.5371 241.062 39.6167C240.574 39.6849 240.13 39.7474 239.733 39.8042C238.88 39.9292 238.136 40.128 237.5 40.4008C236.863 40.6735 236.369 41.0428 236.017 41.5087C235.664 41.9633 235.488 42.5314 235.488 43.2133C235.488 44.2019 235.846 44.9576 236.562 45.4803C237.289 45.9917 238.21 46.2474 239.324 46.2474Z" fill="#2D5363"/>
<path d="M261.975 22.1354C264.519 22.1354 266.58 20.0854 266.58 17.5566C266.58 15.0278 264.519 12.9778 261.975 12.9778C259.432 12.9778 257.37 15.0278 257.37 17.5566C257.37 20.0854 259.432 22.1354 261.975 22.1354Z" fill="#84B8CE"/>
<path d="M262.597 13.0237C262.666 13.3213 262.804 13.596 263.011 13.825C263.61 14.4202 264.324 15.2444 264.577 15.9541C264.669 16.1831 264.761 16.4349 264.807 16.6867C264.807 16.6867 264.807 16.6867 264.807 16.7325V16.8928C264.807 16.8928 264.853 17.1217 264.853 17.2362C264.853 17.2362 264.853 17.6254 264.853 17.5338C264.853 17.4422 264.807 17.8314 264.807 17.8314C264.761 18.0375 264.669 18.358 264.646 18.4496C264.347 19.2051 263.748 19.9606 263.126 20.4413C262.251 21.1282 261.445 21.4945 260.455 21.8608C260.455 21.8608 260.432 21.8608 260.409 21.8837C260.962 22.0897 261.584 22.1813 262.205 22.1584C264.738 22.021 266.695 19.869 266.58 17.3507C266.465 15.107 264.761 13.3442 262.597 13.0466V13.0237Z" fill="#618EA3"/>
<path d="M265.654 50.7642H258.667V24.8079H265.654V50.7642Z" fill="#2D5363"/>
</svg>
