<svg width="331" height="395" viewBox="0 0 331 395" fill="none" xmlns="http://www.w3.org/2000/svg">
<path d="M128.516 222.421C107.233 230.56 101.831 258.068 118.366 273.857C147.015 301.203 190.071 311.295 229.689 296.157C269.307 281.019 294.355 244.721 296.974 205.33C298.448 182.704 276.019 165.776 254.737 174.077C253.755 174.403 189.416 199.144 188.434 199.47C187.615 199.795 129.334 222.095 128.516 222.421Z" fill="#9BC9DD"/>
<path d="M265.266 369.404C301.282 355.579 326.519 334.173 321.635 321.594C316.75 309.014 283.593 310.024 247.577 323.849C211.561 337.674 186.324 359.079 191.208 371.659C196.093 384.239 229.249 383.229 265.266 369.404Z" fill="#64C676"/>
<path d="M240.985 14.3993C232.635 17.492 226.578 24.9796 225.432 33.9321C222.813 55.7437 208.242 75.2765 186.305 83.4152C167.151 90.5772 146.851 87.4845 130.971 77.067C118.201 68.6028 102.649 65.8357 88.4059 71.2072L17.3553 97.5764C2.45765 103.111 -3.27223 121.341 6.05929 134.2C40.6023 181.73 109.852 200.937 174.682 176.847C239.511 152.757 279.129 93.1816 273.727 34.746C272.253 18.957 256.046 8.86505 240.985 14.3993Z" fill="#64C676"/>
<path d="M174.682 176.846C212.663 162.685 241.804 136.478 258.502 105.551C218.884 117.922 184.832 145.431 142.431 150.151C111.981 153.57 78.5837 154.058 50.7529 137.781C47.1512 135.665 16.2098 114.992 6.22348 104.9C-0.16125 112.388 -1.30723 123.782 4.91379 132.572C38.9657 181.404 109.034 201.262 174.682 176.846Z" fill="#57B565"/>
<path d="M174.682 65.5085C192.765 65.5085 207.424 50.9333 207.424 32.9538C207.424 14.9744 192.765 0.39917 174.682 0.39917C156.599 0.39917 141.939 14.9744 141.939 32.9538C141.939 50.9333 156.599 65.5085 174.682 65.5085Z" fill="#9BC9DD"/>
<path d="M179.101 0.725342C179.592 2.84139 180.574 4.79467 182.048 6.4224C186.304 10.6545 191.379 16.5143 193.18 21.5603C193.835 23.188 194.49 24.9785 194.817 26.7691C194.817 26.7691 194.817 26.7691 194.817 27.0946V28.234C194.817 28.234 195.145 29.8617 195.145 30.6756C195.145 30.6756 195.145 33.4428 195.145 32.7917C195.145 32.1406 194.817 34.9077 194.817 34.9077C194.49 36.3727 193.835 38.6515 193.671 39.3026C191.543 44.6741 187.286 50.0456 182.866 53.4639C176.645 58.3471 170.915 60.9514 163.876 63.5558C163.876 63.5558 163.712 63.5558 163.548 63.7186C167.477 65.1835 171.898 65.8346 176.318 65.6719C194.326 64.6952 208.241 49.3945 207.423 31.4895C206.604 15.5377 194.49 3.00417 179.101 0.888115V0.725342Z" fill="#70A0B4"/>
<path d="M229.688 296.159C259.975 284.602 281.584 260.511 291.407 232.189C286.987 232.514 282.73 233.654 278.965 236.258C261.284 247.815 242.621 257.256 222.649 264.418C213.808 267.511 206.114 270.441 196.946 270.441C195.309 270.441 195.145 270.441 196.291 270.441C195.309 270.441 194.49 270.278 193.508 270.115C191.216 269.79 188.924 269.464 186.632 268.976C182.376 268.162 180.902 267.674 178.119 266.86C161.093 260.674 150.288 254.163 137.028 241.63C135.882 240.49 135.718 240.328 136.7 241.467C136.045 240.816 135.554 240.165 134.899 239.514C133.426 237.886 131.953 236.095 130.479 234.468C128.024 231.538 125.732 228.282 123.603 225.19C106.25 235.282 102.812 259.535 118.037 274.184C146.687 301.53 189.743 311.622 229.361 296.484L229.688 296.159Z" fill="#7EAFC5"/>
<path d="M321.533 321.548C318.914 314.874 308.273 312.107 293.539 312.921C297.14 316.991 303.034 320.246 300.906 325.618C299.923 328.222 297.795 330.826 295.994 332.942C288.136 342.709 277.004 350.359 266.69 357.033C245.244 370.706 219.214 371.682 194.657 375.752C204.971 383.565 233.948 381.123 265.217 369.241C301.233 355.405 326.445 334.082 321.533 321.385V321.548Z" fill="#57B565"/>
</svg>
