<svg width="285" height="84" viewBox="0 0 285 84" fill="none" xmlns="http://www.w3.org/2000/svg">
<g filter="url(#filter0_d_67_468)">
<path d="M30.61 43.5115C27.009 44.8885 26.0949 49.543 28.8926 52.2145C33.7401 56.8415 41.0252 58.549 47.7286 55.9877C54.432 53.4263 58.6701 47.2846 59.1133 40.6196C59.3626 36.7914 55.5677 33.9271 51.9667 35.3317C51.8005 35.3868 40.9144 39.5731 40.7482 39.6281C40.6097 39.6832 30.7485 43.4564 30.61 43.5115Z" fill="#F9FDFF"/>
<path d="M53.7487 68.3806C59.8427 66.0414 64.1129 62.4196 63.2864 60.2911C62.4599 58.1626 56.8498 58.3335 50.7558 60.6727C44.6618 63.0119 40.3917 66.6337 41.2181 68.7622C42.0446 70.8906 47.6547 70.7198 53.7487 68.3806Z" fill="#F9FDFF"/>
<path d="M49.6399 8.31364C48.2272 8.83692 47.2023 10.1038 47.0084 11.6186C46.5652 15.3091 44.0999 18.6141 40.3881 19.9911C37.1472 21.203 33.7124 20.6797 31.0255 18.917C28.8649 17.4849 26.2334 17.0167 23.8235 17.9256L11.8017 22.3872C9.28102 23.3236 8.31152 26.4083 9.89042 28.584C15.7351 36.6261 27.4522 39.876 38.4214 35.7999C49.3906 31.7237 56.094 21.6436 55.1799 11.7563C54.9306 9.08479 52.1883 7.37723 49.6399 8.31364Z" fill="#F9FDFF"/>
<path d="M38.4214 35.8002C44.8478 33.4041 49.7784 28.97 52.6038 23.7371C45.9004 25.8303 40.1388 30.4847 32.9646 31.2834C27.8124 31.8618 22.1616 31.9444 17.4526 29.1903C16.8432 28.8323 11.6079 25.3345 9.91818 23.627C8.83788 24.8939 8.64399 26.8217 9.69658 28.309C15.4582 36.5714 27.3138 39.9314 38.4214 35.8002Z" fill="#C8EEFF"/>
<path d="M38.4213 16.9618C41.481 16.9618 43.9613 14.4957 43.9613 11.4536C43.9613 8.41144 41.481 5.94531 38.4213 5.94531C35.3617 5.94531 32.8813 8.41144 32.8813 11.4536C32.8813 14.4957 35.3617 16.9618 38.4213 16.9618Z" fill="#F9FDFF"/>
<path d="M39.1696 6C39.2527 6.35804 39.4189 6.68853 39.6682 6.96395C40.3884 7.68002 41.2471 8.67151 41.5518 9.52529C41.6626 9.8007 41.7734 10.1037 41.8288 10.4066C41.8288 10.4066 41.8288 10.4066 41.8288 10.4617V10.6545C41.8288 10.6545 41.8842 10.9299 41.8842 11.0676C41.8842 11.0676 41.8842 11.5358 41.8842 11.4256C41.8842 11.3155 41.8288 11.7837 41.8288 11.7837C41.7734 12.0315 41.6626 12.4171 41.6349 12.5273C41.2748 13.4362 40.5546 14.345 39.8067 14.9234C38.7541 15.7496 37.7846 16.1903 36.5935 16.6309C36.5935 16.6309 36.5658 16.6309 36.5381 16.6585C37.2029 16.9064 37.9508 17.0165 38.6987 16.989C41.7457 16.8237 44.1002 14.2348 43.9617 11.2053C43.8232 8.50626 41.7734 6.38558 39.1696 6.02754V6Z" fill="#C8EEFF"/>
<path d="M47.729 55.9885C52.8534 54.033 56.5098 49.9569 58.1718 45.1647C57.4239 45.2198 56.7037 45.4126 56.0666 45.8533C53.075 47.8087 49.9172 49.4061 46.5379 50.6179C45.0421 51.1412 43.7402 51.637 42.189 51.637C41.912 51.637 41.8843 51.637 42.0782 51.637C41.912 51.637 41.7735 51.6094 41.6073 51.5819C41.2195 51.5268 40.8317 51.4717 40.4439 51.3891C39.7237 51.2514 39.4744 51.1688 39.0035 51.031C36.1227 49.9845 34.2945 48.8828 32.0508 46.7621C31.8569 46.5693 31.8292 46.5418 31.9954 46.7346C31.8846 46.6244 31.8015 46.5143 31.6907 46.4041C31.4414 46.1287 31.1921 45.8257 30.9428 45.5503C30.5273 45.0546 30.1395 44.5038 29.7794 43.9805C26.8432 45.688 26.2615 49.7917 28.8376 52.2704C33.6851 56.8973 40.9702 58.6049 47.6736 56.0436L47.729 55.9885Z" fill="#C8EEFF"/>
<path d="M63.2683 60.2839C62.8251 59.1547 61.0246 58.6865 58.5316 58.8242C59.141 59.5127 60.1382 60.0635 59.7781 60.9724C59.6119 61.4131 59.2518 61.8537 58.9471 62.2118C57.6175 63.8642 55.7339 65.1587 53.9888 66.2879C50.3601 68.6013 45.9558 68.7666 41.8008 69.4551C43.5459 70.7771 48.4488 70.364 53.7395 68.3535C59.8335 66.0125 64.0993 62.4045 63.2683 60.2563V60.2839Z" fill="#C8EEFF"/>
<path d="M84.6098 56.4375V21.5284H91.9905V35.9318H106.973V21.5284H114.337V56.4375H106.973V42.017H91.9905V56.4375H84.6098ZM137.076 45.2898V30.2557H144.337V56.4375H137.365V51.6818H137.093C136.502 53.2159 135.519 54.4489 134.144 55.3807C132.78 56.3125 131.115 56.7784 129.15 56.7784C127.4 56.7784 125.86 56.3807 124.53 55.5852C123.201 54.7898 122.161 53.6591 121.411 52.1932C120.672 50.7273 120.297 48.9716 120.286 46.9261V30.2557H127.547V45.6307C127.559 47.1761 127.973 48.3977 128.792 49.2955C129.61 50.1932 130.706 50.642 132.081 50.642C132.956 50.642 133.775 50.4432 134.536 50.0455C135.297 49.6364 135.911 49.0341 136.377 48.2386C136.854 47.4432 137.087 46.4602 137.076 45.2898ZM157.611 56.9318C155.941 56.9318 154.452 56.642 153.145 56.0625C151.838 55.4716 150.804 54.6023 150.043 53.4545C149.293 52.2955 148.918 50.8523 148.918 49.125C148.918 47.6705 149.185 46.4489 149.719 45.4602C150.253 44.4716 150.981 43.6761 151.901 43.0739C152.821 42.4716 153.867 42.017 155.037 41.7102C156.219 41.4034 157.458 41.1875 158.753 41.0625C160.276 40.9034 161.503 40.7557 162.435 40.6193C163.367 40.4716 164.043 40.2557 164.463 39.9716C164.884 39.6875 165.094 39.267 165.094 38.7102V38.608C165.094 37.5284 164.753 36.6932 164.071 36.1023C163.401 35.5114 162.446 35.2159 161.208 35.2159C159.901 35.2159 158.861 35.5057 158.088 36.0852C157.316 36.6534 156.804 37.3693 156.554 38.233L149.838 37.6875C150.179 36.0966 150.85 34.7216 151.85 33.5625C152.85 32.392 154.14 31.4943 155.719 30.8693C157.31 30.233 159.151 29.9148 161.242 29.9148C162.696 29.9148 164.088 30.0852 165.418 30.4261C166.759 30.767 167.946 31.2955 168.981 32.0114C170.026 32.7273 170.85 33.6477 171.452 34.7727C172.054 35.8864 172.356 37.2216 172.356 38.7784V56.4375H165.469V52.8068H165.265C164.844 53.625 164.282 54.3466 163.577 54.9716C162.873 55.5852 162.026 56.0682 161.037 56.4205C160.049 56.7614 158.907 56.9318 157.611 56.9318ZM159.691 51.9205C160.759 51.9205 161.702 51.7102 162.52 51.2898C163.338 50.858 163.981 50.2784 164.446 49.5511C164.912 48.8239 165.145 48 165.145 47.0795V44.3011C164.918 44.4489 164.606 44.5852 164.208 44.7102C163.821 44.8239 163.384 44.9318 162.895 45.0341C162.407 45.125 161.918 45.2102 161.429 45.2898C160.941 45.358 160.498 45.4205 160.1 45.4773C159.248 45.6023 158.503 45.8011 157.867 46.0739C157.231 46.3466 156.736 46.7159 156.384 47.1818C156.032 47.6364 155.856 48.2045 155.856 48.8864C155.856 49.875 156.213 50.6307 156.929 51.1534C157.657 51.6648 158.577 51.9205 159.691 51.9205ZM185.25 41.3011V56.4375H177.989V30.2557H184.909V34.875H185.216C185.796 33.3523 186.767 32.1477 188.131 31.2614C189.495 30.3636 191.148 29.9148 193.091 29.9148C194.909 29.9148 196.495 30.3125 197.847 31.108C199.199 31.9034 200.25 33.0398 201 34.517C201.75 35.983 202.125 37.733 202.125 39.767V56.4375H194.864V41.0625C194.875 39.4602 194.466 38.2102 193.637 37.3125C192.807 36.4034 191.665 35.9489 190.211 35.9489C189.233 35.9489 188.37 36.1591 187.62 36.5795C186.881 37 186.302 37.6136 185.881 38.4205C185.472 39.2159 185.262 40.1761 185.25 41.3011ZM207.985 56.4375V21.5284H215.246V34.6534H215.468C215.786 33.9489 216.246 33.233 216.848 32.5057C217.462 31.767 218.258 31.1534 219.235 30.6648C220.223 30.1648 221.451 29.9148 222.917 29.9148C224.826 29.9148 226.587 30.4148 228.201 31.4148C229.814 32.4034 231.104 33.8977 232.07 35.8977C233.036 37.8864 233.519 40.3807 233.519 43.3807C233.519 46.3011 233.047 48.767 232.104 50.7784C231.172 52.7784 229.9 54.2955 228.286 55.3295C226.684 56.3523 224.888 56.8636 222.9 56.8636C221.49 56.8636 220.292 56.6307 219.303 56.1648C218.326 55.6989 217.525 55.1136 216.9 54.4091C216.275 53.6932 215.797 52.9716 215.468 52.2443H215.144V56.4375H207.985ZM215.093 43.3466C215.093 44.9034 215.309 46.2614 215.74 47.4205C216.172 48.5795 216.797 49.483 217.615 50.1307C218.434 50.767 219.428 51.0852 220.598 51.0852C221.78 51.0852 222.78 50.7614 223.598 50.1136C224.417 49.4545 225.036 48.5455 225.456 47.3864C225.888 46.2159 226.104 44.8693 226.104 43.3466C226.104 41.8352 225.894 40.5057 225.473 39.358C225.053 38.2102 224.434 37.3125 223.615 36.6648C222.797 36.017 221.792 35.6932 220.598 35.6932C219.417 35.6932 218.417 36.0057 217.598 36.6307C216.792 37.2557 216.172 38.142 215.74 39.2898C215.309 40.4375 215.093 41.7898 215.093 43.3466ZM245.83 56.9318C244.159 56.9318 242.671 56.642 241.364 56.0625C240.057 55.4716 239.023 54.6023 238.262 53.4545C237.512 52.2955 237.137 50.8523 237.137 49.125C237.137 47.6705 237.404 46.4489 237.938 45.4602C238.472 44.4716 239.199 43.6761 240.12 43.0739C241.04 42.4716 242.086 42.017 243.256 41.7102C244.438 41.4034 245.677 41.1875 246.972 41.0625C248.495 40.9034 249.722 40.7557 250.654 40.6193C251.586 40.4716 252.262 40.2557 252.682 39.9716C253.103 39.6875 253.313 39.267 253.313 38.7102V38.608C253.313 37.5284 252.972 36.6932 252.29 36.1023C251.62 35.5114 250.665 35.2159 249.427 35.2159C248.12 35.2159 247.08 35.5057 246.307 36.0852C245.534 36.6534 245.023 37.3693 244.773 38.233L238.057 37.6875C238.398 36.0966 239.069 34.7216 240.069 33.5625C241.069 32.392 242.358 31.4943 243.938 30.8693C245.529 30.233 247.37 29.9148 249.461 29.9148C250.915 29.9148 252.307 30.0852 253.637 30.4261C254.978 30.767 256.165 31.2955 257.199 32.0114C258.245 32.7273 259.069 33.6477 259.671 34.7727C260.273 35.8864 260.574 37.2216 260.574 38.7784V56.4375H253.688V52.8068H253.483C253.063 53.625 252.5 54.3466 251.796 54.9716C251.091 55.5852 250.245 56.0682 249.256 56.4205C248.267 56.7614 247.125 56.9318 245.83 56.9318ZM247.909 51.9205C248.978 51.9205 249.921 51.7102 250.739 51.2898C251.557 50.858 252.199 50.2784 252.665 49.5511C253.131 48.8239 253.364 48 253.364 47.0795V44.3011C253.137 44.4489 252.824 44.5852 252.427 44.7102C252.04 44.8239 251.603 44.9318 251.114 45.0341C250.625 45.125 250.137 45.2102 249.648 45.2898C249.159 45.358 248.716 45.4205 248.319 45.4773C247.466 45.6023 246.722 45.8011 246.086 46.0739C245.449 46.3466 244.955 46.7159 244.603 47.1818C244.25 47.6364 244.074 48.2045 244.074 48.8864C244.074 49.875 244.432 50.6307 245.148 51.1534C245.875 51.6648 246.796 51.9205 247.909 51.9205Z" fill="#F9FDFF"/>
<path d="M270.561 27.808C273.105 27.808 275.166 25.758 275.166 23.2292C275.166 20.7004 273.105 18.6504 270.561 18.6504C268.018 18.6504 265.956 20.7004 265.956 23.2292C265.956 25.758 268.018 27.808 270.561 27.808Z" fill="#F9FDFF"/>
<path d="M271.183 18.6973C271.252 18.9949 271.39 19.2696 271.597 19.4986C272.196 20.0938 272.91 20.918 273.163 21.6277C273.255 21.8566 273.347 22.1085 273.393 22.3603C273.393 22.3603 273.393 22.3603 273.393 22.4061V22.5664C273.393 22.5664 273.439 22.7953 273.439 22.9098C273.439 22.9098 273.439 23.299 273.439 23.2074C273.439 23.1158 273.393 23.505 273.393 23.505C273.347 23.7111 273.255 24.0316 273.232 24.1231C272.933 24.8786 272.334 25.6342 271.712 26.1149C270.837 26.8017 270.031 27.1681 269.041 27.5344C269.041 27.5344 269.018 27.5344 268.995 27.5572C269.548 27.7633 270.169 27.8549 270.791 27.832C273.324 27.6946 275.281 25.5426 275.166 23.0242C275.051 20.7806 273.347 19.0178 271.183 18.7202V18.6973Z" fill="#C8EEFF"/>
<path d="M274.24 56.4368H267.253V30.4805H274.24V56.4368Z" fill="#F9FDFF"/>
</g>
<defs>
<filter id="filter0_d_67_468" x="0" y="0.945312" width="284.171" height="82.3076" filterUnits="userSpaceOnUse" color-interpolation-filters="sRGB">
<feFlood flood-opacity="0" result="BackgroundImageFix"/>
<feColorMatrix in="SourceAlpha" type="matrix" values="0 0 0 0 0 0 0 0 0 0 0 0 0 0 0 0 0 0 127 0" result="hardAlpha"/>
<feOffset dy="4"/>
<feGaussianBlur stdDeviation="4.5"/>
<feComposite in2="hardAlpha" operator="out"/>
<feColorMatrix type="matrix" values="0 0 0 0 0 0 0 0 0 0 0 0 0 0 0 0 0 0 0.13 0"/>
<feBlend mode="normal" in2="BackgroundImageFix" result="effect1_dropShadow_67_468"/>
<feBlend mode="normal" in="SourceGraphic" in2="effect1_dropShadow_67_468" result="shape"/>
</filter>
</defs>
</svg>
