<svg width="788" height="543" viewBox="0 0 788 543" fill="none" xmlns="http://www.w3.org/2000/svg">
<g opacity="0.82">
<path d="M606.468 123.064C612.557 136.186 654.175 105.12 647.842 86.3736C642.523 70.6107 626.819 74.9547 618.513 81.8223C609.35 89.3838 604.679 103.831 605.733 119.819C605.82 121.144 606.074 122.207 606.468 123.064Z" fill="#9BC9DD"/>
<path d="M702.48 429.671C695.784 435.268 720.384 454.668 730.319 448.052C738.673 442.491 733.69 434.019 728.391 430.251C722.555 426.093 713.407 425.626 704.256 428.737C703.497 428.994 702.917 429.308 702.48 429.671Z" fill="#91FFA5"/>
<path d="M587.572 385.866C580.877 391.463 605.476 410.863 615.411 404.246C623.765 398.685 618.782 390.213 613.484 386.445C607.647 382.287 598.5 381.821 589.348 384.931C588.589 385.188 588.009 385.503 587.572 385.866Z" fill="#9BC9DD"/>
<path opacity="0.83" d="M239.538 404.942C233.376 398.762 216.205 424.966 223.666 434.283C229.937 442.119 237.94 436.413 241.229 430.805C244.861 424.627 244.524 415.474 240.625 406.629C240.302 405.896 239.938 405.346 239.538 404.942Z" fill="#64C676"/>
<path d="M128.689 373.582C126.871 363.16 91.5923 377.227 92.5173 391.668C93.2913 403.81 105.206 403.713 112.374 400.434C120.278 396.827 126.312 387.506 128.594 376.013C128.783 375.06 128.805 374.261 128.689 373.582Z" fill="#91FFA5"/>
<path d="M51.8142 265.353C49.4254 251.657 3.06366 270.144 4.27918 289.121C5.29639 305.078 20.9548 304.951 30.3738 300.642C40.7607 295.902 48.6905 283.652 51.6895 268.548C51.9385 267.296 51.9666 266.246 51.8142 265.353Z" fill="#C8EEFF"/>
<path d="M118.648 116.176C124.481 111.521 103.827 94.4568 95.2048 99.9204C87.954 104.512 92.0495 111.852 96.5061 115.176C101.415 118.845 109.227 119.422 117.112 116.941C117.765 116.735 118.267 116.478 118.648 116.176Z" fill="#64C676"/>
<path d="M623.206 224.49C621.01 231.622 647.688 234.083 651.733 224.712C655.137 216.833 647.617 213.076 642.063 212.841C635.94 212.576 629.161 216.501 624.045 222.993C623.621 223.531 623.351 224.026 623.206 224.49Z" fill="#2D6F39"/>
<path d="M738.428 254.54C734.579 265.095 774.502 270.84 781.302 257.059C787.023 245.474 776.005 239.25 767.671 238.47C758.486 237.602 747.994 242.984 739.804 252.353C739.125 253.129 738.681 253.853 738.428 254.54Z" fill="#162F3A"/>
</g>
<g opacity="0.36">
<path d="M320.079 305.67C290.779 316.875 283.341 354.747 306.105 376.484C345.547 414.131 404.823 428.025 459.366 407.185C513.909 386.344 548.393 336.371 551.999 282.14C554.028 250.991 523.15 227.686 493.85 239.114C492.498 239.563 403.922 273.625 402.569 274.073C401.442 274.521 321.205 305.222 320.079 305.67Z" fill="#9BC9DD"/>
<path d="M508.346 508.025C557.93 488.992 592.675 459.523 585.95 442.204C579.226 424.885 533.578 426.275 483.994 445.309C434.409 464.342 399.664 493.811 406.389 511.13C413.114 528.448 458.761 527.058 508.346 508.025Z" fill="#64C676"/>
<path d="M474.918 19.2818C463.423 23.5396 455.084 33.8479 453.506 46.173C449.9 76.2016 429.841 103.093 399.639 114.297C373.269 124.158 345.322 119.9 323.459 105.558C305.879 93.905 284.468 90.0954 264.859 97.4905L167.042 133.794C146.532 141.413 138.644 166.511 151.491 184.215C199.047 249.65 294.385 276.093 383.637 242.927C472.889 209.761 527.432 127.743 519.995 47.2935C517.966 25.5564 495.653 11.6626 474.918 19.2818Z" fill="#64C676"/>
<path d="M383.637 242.926C435.927 223.43 476.045 187.351 499.034 144.773C444.491 161.804 397.611 199.676 339.237 206.175C297.315 210.881 251.337 211.553 213.021 189.144C208.063 186.231 165.465 157.771 151.717 143.877C142.927 154.185 141.349 169.872 149.913 181.973C196.793 249.201 293.258 276.54 383.637 242.926Z" fill="#57B565"/>
<path d="M383.636 89.6452C408.532 89.6452 428.713 69.5792 428.713 44.8265C428.713 20.0738 408.532 0.0078125 383.636 0.0078125C358.741 0.0078125 338.56 20.0738 338.56 44.8265C338.56 69.5792 358.741 89.6452 383.636 89.6452Z" fill="#9BC9DD"/>
<path d="M389.721 0.456055C390.397 3.36927 391.75 6.05839 393.778 8.29933C399.638 14.1258 406.625 22.1931 409.104 29.14C410.006 31.381 410.907 33.846 411.358 36.311C411.358 36.311 411.358 36.311 411.358 36.7592V38.3279C411.358 38.3279 411.809 40.5688 411.809 41.6893C411.809 41.6893 411.809 45.4989 411.809 44.6025C411.809 43.7061 411.358 47.5157 411.358 47.5157C410.907 49.5325 410.006 52.6699 409.78 53.5662C406.85 60.9613 400.99 68.3564 394.905 73.0624C386.34 79.7852 378.452 83.3707 368.76 86.9562C368.76 86.9562 368.535 86.9562 368.31 87.1803C373.719 89.1971 379.804 90.0935 385.89 89.8694C410.682 88.5248 429.84 67.46 428.713 42.8097C427.586 20.8486 410.907 3.59336 389.721 0.680148V0.456055Z" fill="#70A0B4"/>
<path d="M459.365 407.187C501.061 391.277 530.812 358.111 544.335 319.118C538.25 319.567 532.39 321.135 527.206 324.721C502.865 340.631 477.171 353.629 449.674 363.489C437.503 367.747 426.91 371.78 414.288 371.78C412.035 371.78 411.809 371.78 413.387 371.78C412.035 371.78 410.908 371.556 409.555 371.332C406.4 370.884 403.245 370.436 400.089 369.764C394.229 368.643 392.201 367.971 388.369 366.85C364.929 358.335 350.054 349.371 331.798 332.116C330.22 330.547 329.995 330.323 331.347 331.892C330.445 330.995 329.769 330.099 328.868 329.203C326.839 326.962 324.811 324.497 322.782 322.256C319.402 318.222 316.246 313.74 313.316 309.482C289.425 323.376 284.692 356.766 305.653 376.935C345.095 414.582 404.371 428.476 458.915 407.635L459.365 407.187Z" fill="#7EAFC5"/>
<path d="M585.811 442.141C582.205 432.953 567.555 429.143 547.27 430.264C552.228 435.866 560.342 440.348 557.412 447.743C556.06 451.328 553.13 454.914 550.651 457.827C539.832 471.273 524.506 481.805 510.307 490.993C480.782 509.817 444.945 511.161 411.138 516.764C425.337 527.52 465.23 524.159 508.278 507.8C557.863 488.752 592.572 459.396 585.811 441.916V442.141Z" fill="#57B565"/>
</g>
</svg>
